<?xml version="1.0" encoding="iso-8859-1"?>
<!-- Generator: Adobe Illustrator 19.0.0, SVG Export Plug-In . SVG Version: 6.00 Build 0)  -->
<svg version="1.1" id="Layer_1" xmlns="http://www.w3.org/2000/svg" xmlns:xlink="http://www.w3.org/1999/xlink" x="0px" y="0px"
	 viewBox="0 0 496 496" style="enable-background:new 0 0 496 496;" xml:space="preserve">
<g>
	<g>
		<g>
			<path d="M128,193.472V128h48V0H64v128h48v65.472c-5.112,1.824-9.424,5.28-12.272,9.808C92.528,196.328,82.776,192,72,192
				c-22.056,0-40,17.944-40,40c0,22.056,17.944,40,40,40c9.04,0,17.296-3.128,24-8.208V272H72H40c-22.056,0-40,17.944-40,40v64
				c0,13.232,10.768,24,24,24c2.808,0,5.504-0.488,8-1.368V496h80V327.192c18.232-3.72,32-19.872,32-39.192v-72
				C144,205.584,137.288,196.784,128,193.472z M80,112V16h80v96H80z M72,256c-13.232,0-24-10.768-24-24s10.768-24,24-24
				s24,10.768,24,24S85.232,256,72,256z M32,376c0,4.416-3.584,8-8,8s-8-3.584-8-8v-40h16V376z M32,320H16v-8
				c0-13.232,10.768-24,24-24h24v64H48v-40H32V320z M64,480H48v-16h16V480z M96,480H80v-16h16V480z M96,448H80v-64H64v64H48v-80h48
				V448z M128,288c0,13.232-10.768,24-24,24h-8v40H80v-64h32v-8h16V288z M128,264h-16v-48c0-4.416,3.584-8,8-8s8,3.584,8,8V264z"/>
			<polygon points="128,32 96,32 96,48 112,48 112,80 96,80 96,96 144,96 144,80 128,80 			"/>
			<path d="M288,193.472V128h48V0H224v128h48v65.472c-5.112,1.824-9.424,5.28-12.272,9.808C252.528,196.328,242.776,192,232,192
				c-22.056,0-40,17.944-40,40c0,22.056,17.944,40,40,40c9.04,0,17.296-3.128,24-8.208V272h-24h-32c-22.056,0-40,17.944-40,40v64
				c0,13.232,10.768,24,24,24c2.808,0,5.504-0.488,8-1.368V496h80V327.192c18.232-3.72,32-19.872,32-39.192v-72
				C304,205.584,297.288,196.784,288,193.472z M240,112V16h80v96H240z M232,256c-13.232,0-24-10.768-24-24s10.768-24,24-24
				s24,10.768,24,24S245.232,256,232,256z M240,288l-8,10.664L224,288H240z M192,376c0,4.416-3.584,8-8,8s-8-3.584-8-8v-8h16V376z
				 M224,480h-16v-16h16V480z M256,480h-16v-16h16V480z M256,448h-16v-64h-16v64h-16v-80h48V448z M288,288c0,13.232-10.768,24-24,24
				h-8v40h-48v-40h-16v40h-16v-40c0-13.232,10.768-24,24-24h4l28,37.336L260,288h12v-48h16V288z M288,224h-16v-8
				c0-4.416,3.584-8,8-8c4.416,0,8,3.584,8,8V224z"/>
			<path d="M496,128V0H384v128h48v65.472c-5.112,1.824-9.424,5.28-12.272,9.808C412.528,196.328,402.776,192,392,192
				c-22.056,0-40,17.944-40,40c0,22.056,17.944,40,40,40c9.04,0,17.296-3.128,24-8.208V272h-24h-32c-22.056,0-40,17.944-40,40v64
				c0,13.232,10.768,24,24,24c2.808,0,5.504-0.488,8-1.368V496h80V327.192c18.232-3.72,32-19.872,32-39.192v-72
				c0-10.416-6.712-19.216-16-22.528V128H496z M392,256c-13.232,0-24-10.768-24-24s10.768-24,24-24s24,10.768,24,24
				S405.232,256,392,256z M352,376c0,4.416-3.584,8-8,8c-4.416,0-8-3.584-8-8v-32h16V376z M384,480h-16v-16h16V480z M416,480h-16
				v-16h16V480z M416,448h-16v-64h-16v64h-16v-80h48V448z M448,288c0,13.232-10.768,24-24,24h-8v40h-48v-40h-16v16h-16v-16
				c0-13.232,10.768-24,24-24h72v-16h16V288z M448,256h-16v-40c0-4.416,3.584-8,8-8c4.416,0,8,3.584,8,8V256z M400,112V16h80v96H400
				z"/>
			<path d="M444,32h-28v16h28c2.2,0,4,1.8,4,4s-1.8,4-4,4h-28v16h28c2.2,0,4,1.8,4,4s-1.8,4-4,4h-28v16h28c11.032,0,20-8.968,20-20
				c0-4.504-1.496-8.656-4.008-12c2.512-3.344,4.008-7.496,4.008-12C464,40.968,455.032,32,444,32z"/>
			<path d="M304,54.832C304,42.24,293.76,32,281.168,32h-2.328C266.24,32,256,42.24,256,54.832V56h16v-1.168
				c0-3.76,3.072-6.832,6.832-6.832h2.328c3.768,0,6.84,3.072,6.84,6.832c0,2.6-1.448,4.944-3.784,6.112L256,75.056V96h48V80
				h-22.112l9.488-4.744C299.168,71.36,304,63.536,304,54.832z"/>
		</g>
	</g>
</g>
<g>
</g>
<g>
</g>
<g>
</g>
<g>
</g>
<g>
</g>
<g>
</g>
<g>
</g>
<g>
</g>
<g>
</g>
<g>
</g>
<g>
</g>
<g>
</g>
<g>
</g>
<g>
</g>
<g>
</g>
</svg>
