<svg xmlns="http://www.w3.org/2000/svg" viewBox="0 0 290 290"><path d="M250.626 0H39.374C17.663 0 0 17.663 0 39.374v211.252C0 272.338 17.663 290 39.374 290h211.252C272.337 290 290 272.338 290 250.626V39.374C290 17.663 272.337 0 250.626 0zM145 215.846c-35.762 0-64.856-29.094-64.856-64.856 0-35.761 29.095-64.856 64.856-64.856s64.856 29.095 64.856 64.856c0 35.762-29.094 64.856-64.856 64.856zm120.447-112.731H206.85C192.058 85.407 169.823 74.122 145 74.122s-47.058 11.286-61.85 28.993H24.553V46.804c0-14.313 11.645-25.957 25.958-25.957H239.49c14.313 0 25.958 11.644 25.958 25.957v56.311z"/><path d="M145 109.296c-22.989 0-41.694 18.704-41.694 41.693 0 22.99 18.704 41.693 41.694 41.693s41.694-18.703 41.694-41.693c0-22.989-18.705-41.693-41.694-41.693zM233.488 37.491h-25.093c-5.735 0-10.401 4.667-10.401 10.402v25.093c0 5.735 4.665 10.401 10.401 10.401h25.093c5.735 0 10.401-4.665 10.401-10.401V47.893c0-5.736-4.666-10.402-10.401-10.402z"/></svg>
