<svg xmlns="http://www.w3.org/2000/svg" viewBox="0 0 512 512"><path d="M511.546 255.998c0 139.542-114.513 250.475-255.772 250.475S.001 395.54.001 255.998 114.515 3.335 255.774 3.335s255.772 113.122 255.772 252.663z" fill="#4982aa"/><g fill="#6cb8dd"><path d="M185.306 12.783c-54.203 15.584-101.09 48.62-134.161 92.609 18.243 7.116 40.146 13.152 64.607 17.924 6.76-20.136 15.067-38.911 24.832-55.852 13.143-22.796 28.254-41.16 44.722-54.681zM40.983 119.938C16.439 157.755 1.597 202.418.001 250.382h94.811c.701-38.874 6.134-76.371 15.823-110.514-26.521-5.267-50.194-11.981-69.652-19.93z"/></g><g fill="#b3dcf4"><path d="M471.012 119.93c-19.49 7.966-43.131 14.693-69.639 19.96 9.685 34.138 15.115 71.626 15.816 110.492H512c-1.597-47.968-16.44-92.633-40.988-130.452zM356.453 76.09c-25.128-43.591-57.457-69.086-91.819-72.756v132.468c40.569-.408 79.637-3.689 114.449-9.389-6.239-18.127-13.812-35.027-22.63-50.323z"/></g><path d="M417.193 267.652a470.785 470.785 0 0 1-.974 23.004 8.636 8.636 0 0 1-17.231-1.161c.486-7.209.792-14.526.931-21.845h-88.376a8.634 8.634 0 0 1-8.635-8.635 8.634 8.634 0 0 1 8.635-8.635h88.375c-.708-37.904-6.058-74.363-15.591-107.378-36.43 6.123-77.32 9.647-119.692 10.068v78.254a8.634 8.634 0 0 1-8.635 8.635 8.634 8.634 0 0 1-8.635-8.635V153.07c-42.273-.424-83.205-3.956-119.687-10.086-9.536 33.021-14.888 69.486-15.596 107.397h88.549a8.634 8.634 0 0 1 8.635 8.635 8.634 8.634 0 0 1-8.635 8.635h-88.549a456.42 456.42 0 0 0 .878 21.08 8.636 8.636 0 0 1-8.05 9.183c-4.756.304-8.87-3.293-9.183-8.051a470.346 470.346 0 0 1-.92-22.212H0c.691 20.841 3.879 41.289 9.419 60.982 32.785 104.342 130.267 180.03 245.431 180.03 136.614 0 250.833-108.779 256.698-241.014h-94.355v.003z" fill="#6cb8dd"/><path d="M326.695 12.783c16.468 13.521 31.58 31.885 44.722 54.683 9.769 16.947 18.077 35.727 24.839 55.872 24.448-4.773 46.351-10.809 64.607-17.936-33.074-43.994-79.962-77.034-134.168-92.619z" fill="#b3dcf4"/><path d="M247.365 3.335c-34.361 3.67-66.691 29.164-91.819 72.756-8.813 15.288-16.382 32.178-22.623 50.297 34.869 5.71 73.969 9.003 114.441 9.414l.001-132.467z" fill="#6cb8dd"/><g fill="#b3dcf4"><path d="M148.113 128.678c30.878 4.294 64.556 6.772 99.252 7.124V3.335c-20.862 2.228-40.972 12.516-59.178 30-19.605 28.072-33.517 60.408-40.074 95.343zM416.219 290.655a8.636 8.636 0 0 1-17.231-1.161c.486-7.209.792-14.526.931-21.845h-88.376a8.634 8.634 0 0 1-8.635-8.635 8.634 8.634 0 0 1 8.635-8.635h88.375c-.708-37.904-6.058-74.363-15.591-107.378-36.43 6.123-77.32 9.647-119.692 10.068v78.254a8.634 8.634 0 0 1-8.635 8.635 8.634 8.634 0 0 1-8.635-8.635V153.07c-35.509-.356-70.06-2.913-101.834-7.353a249.238 249.238 0 0 0-1.676 28.752c0 26.489 4.19 51.994 11.915 75.912h44.862a8.634 8.634 0 0 1 8.635 8.635 8.634 8.634 0 0 1-8.635 8.635h-38.56c36.771 90.109 125.257 153.623 228.589 153.623 22.337 0 44.086-2.509 64.665-8.072 33.47-39.604 52.814-90.784 56.221-145.551h-94.354a471.988 471.988 0 0 1-.974 23.004z"/></g><path d="M440.971 351.89l-.494.365c-.009-.012-.02-.023-.029-.033l.457-.332h.066zm-.491 0l-.112.23-.044-.054.091-.176h.065zm-132.117-41.108l-.624.463c-.012-.016-.025-.029-.036-.045l.578-.418h.082zm-.621 0l-.14.292c-.018-.023-.038-.045-.056-.069l.115-.223h.081zM144.08 351.89l-.495.365c-.008-.012-.02-.023-.028-.033l.457-.332h.066zm-.492 0l-.112.23-.044-.054.091-.176h.065z" fill="#edba89"/><path d="M459.386 355.867v-16.572c0-5.739-.872-11.278-2.487-16.492l-.087-.268c-.039-.123-.083-.245-.123-.367-7.524-21.543-27.394-28.53-40.555-30.776a8.633 8.633 0 0 1-9.11 7.3 8.498 8.498 0 0 1-1.078-.148V408.27h-14.608c.781 3.936.659 9.891.652 14.695-.009 7.173-3.091 9.414-4.03 11.859s-18.996 40.28-22.285 20.196c-1.97-12.026-8.362-21.139-13.174-26.52l-.091.037a56.51 56.51 0 0 0-2.994-3.139l-.084-.083a53.295 53.295 0 0 0-1.193-1.125 25.96 25.96 0 0 0-.593-.53l-.035-.029a48.241 48.241 0 0 0-1.943-1.66c-.077-.066-.158-.129-.239-.193-4.557-3.675-9.647-6.603-14.362-8.263l-41.697-16.711v-2.026c13.556-7.602 22.962-20.644 25.915-35.734a14.347 14.347 0 0 0 2.322-.522 26.003 26.003 0 0 0 5.929-2.706 14.64 14.64 0 0 0 3.008-2.451 14.564 14.564 0 0 0 2.939-2.546 26.287 26.287 0 0 0 6.482-14.878v-5.035a26.358 26.358 0 0 0-6.071-14.452v-19.656a114.3 114.3 0 0 1-.708-6.445c-.748-8.872-2.778-16.362-5.679-22.702h-11.865a8.634 8.634 0 0 1-8.635-8.635c0-4.557 3.531-8.28 8.006-8.604-16.131-14.768-38.203-16.987-46.483-17.279a9.158 9.158 0 0 1-.277 1.013V477.98h-87.741v-40.562l-14.058-5.606-.044.056-31.724-12.719c10.322-6.127 17.558-16.173 20.106-27.785.359-.078.712-.173 1.058-.283 1.74-.54 3.43-1.311 5.015-2.285a13.038 13.038 0 0 0 2.566-2.062 12.994 12.994 0 0 0 2.479-2.175 22.249 22.249 0 0 0 5.593-14.739c0-5.094-1.76-10.029-4.911-13.951v-16.574c0-2.655-.189-5.266-.549-7.823-5.149-33.423-35.718-39.73-49.068-40.881-.592 3.926-3.844 7.052-7.968 7.322a8.593 8.593 0 0 1-4.483-.936v160.159c43.005 32.342 96.467 51.527 154.421 51.527 74.799 0 142.132-31.93 189.126-82.902l-16.497-6.614c10.322-6.127 17.558-16.173 20.106-27.785.358-.078.712-.174 1.058-.283 1.74-.54 3.43-1.311 5.016-2.285a13.038 13.038 0 0 0 2.566-2.062 12.994 12.994 0 0 0 2.479-2.175 22.249 22.249 0 0 0 .687-28.69z" fill="#87bed5"/><path d="M482.072 477.376c0-.65-.018-1.285-.039-1.922-.006-.089-.005-.181-.01-.268-.012-.321-.039-.636-.06-.952-.024-.404-.041-.811-.075-1.21-.016-.163-.04-.326-.054-.492a47.222 47.222 0 0 0-.178-1.611c-.003-.045-.013-.089-.02-.134-1.449-10.838-6.384-18.754-11.931-24.148-.026-.026-.052-.049-.077-.075a41.86 41.86 0 0 0-.875-.825c-.145-.134-.291-.26-.438-.388a34.143 34.143 0 0 0-1.449-1.232c-3.557-2.878-7.12-4.75-9.913-5.716-.01-.002-.021-.01-.036-.014l-.071-.025c-.009-.001-.018-.006-.029-.009l-36.65-14.695-9.154 9.502-9.363 9.12-9.365-9.12-9.154-9.502-36.65 14.695c-.008.003-.02.008-.026.009l-.074.025c-.012.003-.025.012-.036.014-2.793.966-6.354 2.838-9.913 5.716-.03.024-.063.049-.09.074a32.434 32.434 0 0 0-1.358 1.158 37.353 37.353 0 0 0-1.313 1.213l-.078.075c-5.543 5.394-10.48 13.31-11.93 24.148-.006.045-.014.089-.021.134-.068.527-.121 1.068-.175 1.611-.014.165-.038.327-.051.492-.036.399-.055.806-.079 1.21-.02.317-.047.631-.06.952-.005.087-.003.18-.007.268a50.714 50.714 0 0 0-.041 1.922v5.826h.002v17.8c.237 2.778 1.676 7.663 8.861 7.663h143.122c7.184 0 8.618-4.885 8.861-7.663v-23.626h-.003z" fill="#6598cb"/><g fill="#4982aa"><path d="M367.123 499.591l.025-30.42a75.643 75.643 0 0 0-.071-3.085c-.014-.343-.036-.68-.061-1.019l-.04-.65a43.613 43.613 0 0 0-.089-1.336 15.41 15.41 0 0 0-.058-.536l-.017-.154a65.316 65.316 0 0 0-.243-2.207 8.677 8.677 0 0 0-.05-.355c-1.467-10.836-5.373-19.276-9.704-25.622l-10.337 4.145c-.008.003-.02.008-.026.009l-.074.025c-.012.003-.025.012-.036.014-2.793.966-6.354 2.838-9.913 5.716-.03.024-.063.049-.09.074a34.218 34.218 0 0 0-1.359 1.158 35.414 35.414 0 0 0-1.313 1.214l-.078.075c-5.543 5.394-10.48 13.31-11.93 24.148-.006.045-.014.089-.021.134-.068.527-.121 1.068-.175 1.611-.014.165-.038.327-.051.492-.036.399-.055.806-.079 1.21-.02.317-.047.631-.06.952-.005.087-.003.18-.007.268a50.706 50.706 0 0 0-.041 1.921v5.826h.002v17.8c.237 2.778 1.676 7.663 8.861 7.663h33.823c1.921-2.721 2.938-5.935 3.212-9.071z"/><path d="M382.956 424.072l-36.462 14.278-.113.038c-9.339 3.334-25.153 15.295-25.153 38.986V501c.237 2.778 1.676 7.663 8.861 7.663h1.843v-31.29c0-23.691 15.814-35.653 25.157-38.986l.113-.038 28.82-11.286-3.066-2.991z"/></g><path d="M403.537 290.353h-3.954c-26.986 0-48.94 21.956-48.94 48.942v22.961s11.142-1.106 12.511-6.509l-.007-.005a6.166 6.166 0 0 0 1.144-1.745c6.318-.193 35.843-.421 52.705-20.785 2.011 5.885 8.818 17.032 21.916 20.541a6.22 6.22 0 0 0 1.158 1.905l-.108.087c1.37 5.403 12.514 6.509 12.514 6.509V339.293c.003-26.983-21.955-48.94-48.939-48.94zm36.898 61.879l.472-.342h.066l-.768.569.23-.227zm-.241.145l.054-.163.167-.324h.064l-.196.404-.089.083zm-1.295 1.005l-.018-.026 1.207-.874-.285.276-.882.652-.022-.028zm.994-.283l-.378.782-.006-.001-.052-.024c-.009-.005-.021-.01-.026-.016l.618-1.224.015-.016-.171.499z" fill="#694b4b"/><path d="M359.27 351.934v-12.639c0-26.203 20.7-47.658 46.604-48.881a49.095 49.095 0 0 0-2.338-.061h-3.954c-26.986 0-48.94 21.956-48.94 48.942v22.961s4.923-.492 8.627-2.405v-7.917h.001z" fill="#563b3b"/><path d="M446.601 355.161a6.167 6.167 0 0 0-5.489.914 6.173 6.173 0 0 0-2.509 4.965v17.562a6.16 6.16 0 0 0 7.994 5.88 15.18 15.18 0 0 0 3.45-1.577 6.199 6.199 0 0 0 1.685-1.527 6.208 6.208 0 0 0 1.796-1.395 15.345 15.345 0 0 0 3.863-10.164 15.288 15.288 0 0 0-10.79-14.658z" fill="#fbcb99"/><path d="M362.187 356.075a6.17 6.17 0 0 0-5.486-.916 15.292 15.292 0 0 0-10.79 14.66 15.293 15.293 0 0 0 10.79 14.663 6.161 6.161 0 0 0 7.998-5.88V361.04a6.17 6.17 0 0 0-2.512-4.965z" fill="#edba89"/><path d="M418.473 409.211a6.194 6.194 0 0 0-4.525-1.704l-.212.012a6.194 6.194 0 0 0-1.116.14c-2.381.53-4.807.798-7.205.798h-7.532c-2.471 0-4.965-.282-7.42-.843a6.134 6.134 0 0 0-5.213 1.181 6.168 6.168 0 0 0-2.327 4.822v17.924l-.002.06a6.167 6.167 0 0 0 1.852 4.756l12.381 12.06a6.154 6.154 0 0 0 4.3 1.748h.098a6.176 6.176 0 0 0 4.34-1.887l12.754-13.242a6.144 6.144 0 0 0 1.723-4.272v-17.098a6.146 6.146 0 0 0-1.896-4.455z" fill="#fbcb99"/><path d="M402.703 446.566l-12.38-12.06a6.163 6.163 0 0 1-1.854-4.756l.006-.06v-17.926c0-1.576.607-3.076 1.673-4.21a6.163 6.163 0 0 0-4.896 1.24 6.168 6.168 0 0 0-2.327 4.822v17.924l-.002.06a6.167 6.167 0 0 0 1.852 4.756l12.381 12.06a6.154 6.154 0 0 0 4.3 1.748h.098a6.176 6.176 0 0 0 4.34-1.887l.052-.058a6.153 6.153 0 0 1-3.243-1.653z" fill="#edba89"/><path d="M437.674 350.129a21.231 21.231 0 0 1-2.134-.944c-10.355-4.831-14.652-11.113-16.38-14.864a3.815 3.815 0 0 1-.314-.493c-1.239-2.276-3.167-.836-3.167-.836l-.005-.005c-9.671 7.418-20.233 11.753-29.015 14.277a90.493 90.493 0 0 1-9.654 2.273c-5.885 1.08-9.67 1.222-9.67 1.222a6.166 6.166 0 0 0-5.721 6.148v25.145c0 19.996 16.271 36.267 36.27 36.267h7.533c19.996 0 36.267-16.271 36.267-36.267v-26.148a6.157 6.157 0 0 0-4.01-5.775z" fill="#fbcb99"/><path d="M369.01 382.051v-25.145a6.163 6.163 0 0 1 5.716-6.148s3.788-.142 9.671-1.221a90.637 90.637 0 0 0 9.66-2.273c7.767-2.235 16.934-5.892 25.645-11.848a19.854 19.854 0 0 1-.545-1.097 3.815 3.815 0 0 1-.314-.493c-1.239-2.276-3.167-.836-3.167-.836l-.005-.005c-9.671 7.418-20.233 11.753-29.015 14.277a90.493 90.493 0 0 1-9.654 2.273c-5.885 1.08-9.67 1.221-9.67 1.221a6.166 6.166 0 0 0-5.721 6.148v25.145c0 19.996 16.271 36.267 36.27 36.267h7.39c-19.992.002-36.261-16.269-36.261-36.265z" fill="#edba89"/><path d="M185.182 477.376c0-.65-.018-1.285-.039-1.922-.006-.089-.005-.181-.01-.268-.012-.321-.039-.636-.06-.952-.024-.404-.041-.811-.075-1.21-.016-.163-.04-.326-.054-.492a47.222 47.222 0 0 0-.178-1.611c-.003-.045-.013-.089-.02-.134-1.449-10.838-6.384-18.754-11.931-24.148-.025-.026-.052-.049-.077-.075a41.86 41.86 0 0 0-.875-.825c-.145-.134-.291-.26-.438-.388a34.143 34.143 0 0 0-1.449-1.232c-3.557-2.878-7.12-4.75-9.913-5.716-.01-.002-.022-.01-.036-.014l-.07-.025c-.009-.001-.018-.006-.029-.009l-36.65-14.695-9.154 9.502-9.363 9.12-9.365-9.12-9.154-9.502-36.65 14.695c-.008.003-.02.008-.026.009l-.073.025c-.012.003-.024.012-.036.014-2.793.966-6.353 2.838-9.913 5.716-.03.024-.063.049-.09.074a32.434 32.434 0 0 0-1.358 1.158 37.353 37.353 0 0 0-1.313 1.213c-.028.025-.05.048-.078.075-5.543 5.394-10.48 13.31-11.93 24.148-.006.045-.014.089-.021.134a52.603 52.603 0 0 0-.175 1.611c-.014.165-.038.327-.051.492-.036.399-.055.806-.079 1.21-.02.317-.047.631-.06.952-.005.087-.003.18-.007.268a50.714 50.714 0 0 0-.041 1.922v5.826h.002v17.8c.237 2.778 1.676 7.663 8.861 7.663h143.121c7.184 0 8.619-4.885 8.861-7.663v-23.626h-.004z" fill="#6598cb"/><path d="M86.064 424.072L49.602 438.35l-.113.038c-9.339 3.334-25.153 15.295-25.153 38.986V501c.237 2.778 1.676 7.663 8.861 7.663h1.843v-31.29c0-23.691 15.814-35.653 25.157-38.986l.113-.038 28.82-11.286-3.066-2.991z" fill="#4982aa"/><path d="M106.646 290.353h-3.954c-26.986 0-48.94 21.956-48.94 48.942v22.961s11.142-1.106 12.511-6.509l-.007-.005a6.166 6.166 0 0 0 1.144-1.745c6.318-.193 35.843-.421 52.705-20.785 2.011 5.885 8.818 17.032 21.916 20.541a6.2 6.2 0 0 0 1.158 1.905l-.108.087c1.37 5.403 12.514 6.509 12.514 6.509V339.293c.003-26.983-21.955-48.94-48.939-48.94zm36.898 61.879l.472-.342h.066l-.768.569.23-.227zm-.24.145l.054-.163.167-.324h.064l-.196.404-.089.083zm-1.296 1.005l-.018-.026 1.207-.874-.286.276-.882.652-.021-.028zm.993-.283l-.378.782-.006-.001-.052-.024c-.009-.005-.021-.01-.026-.016l.618-1.224.015-.016-.171.499z" fill="#694b4b"/><path d="M62.38 351.934v-12.639c0-26.203 20.7-47.658 46.604-48.881a49.06 49.06 0 0 0-2.338-.061h-3.954c-26.986 0-48.94 21.956-48.94 48.942v22.961s4.923-.492 8.627-2.405v-7.917h.001z" fill="#563b3b"/><path d="M149.71 355.161a6.167 6.167 0 0 0-5.489.914 6.173 6.173 0 0 0-2.509 4.965v17.562a6.16 6.16 0 0 0 7.994 5.88 15.18 15.18 0 0 0 3.45-1.577 6.155 6.155 0 0 0 1.685-1.527 6.208 6.208 0 0 0 1.796-1.395 15.345 15.345 0 0 0 3.863-10.164 15.287 15.287 0 0 0-10.79-14.658z" fill="#fbcb99"/><path d="M65.295 356.075a6.17 6.17 0 0 0-5.486-.916 15.293 15.293 0 0 0-10.79 14.66 15.293 15.293 0 0 0 10.79 14.663 6.161 6.161 0 0 0 7.998-5.88V361.04a6.167 6.167 0 0 0-2.512-4.965z" fill="#edba89"/><path d="M121.582 409.211a6.194 6.194 0 0 0-4.525-1.704l-.212.012a6.194 6.194 0 0 0-1.116.14c-2.381.53-4.807.798-7.205.798h-7.533c-2.471 0-4.964-.282-7.42-.843a6.134 6.134 0 0 0-5.213 1.181 6.168 6.168 0 0 0-2.327 4.822v17.924l-.002.06a6.167 6.167 0 0 0 1.852 4.756l12.381 12.06a6.154 6.154 0 0 0 4.3 1.748h.098a6.172 6.172 0 0 0 4.339-1.887l12.754-13.242a6.144 6.144 0 0 0 1.723-4.272v-17.098a6.144 6.144 0 0 0-1.894-4.455z" fill="#fbcb99"/><path d="M105.811 446.566l-12.38-12.06a6.163 6.163 0 0 1-1.854-4.756l.006-.06v-17.926c0-1.576.607-3.076 1.673-4.21a6.163 6.163 0 0 0-4.896 1.24 6.168 6.168 0 0 0-2.327 4.822v17.924l-.002.06a6.167 6.167 0 0 0 1.852 4.756l12.381 12.06a6.154 6.154 0 0 0 4.3 1.748h.098a6.172 6.172 0 0 0 4.339-1.887l.052-.058a6.16 6.16 0 0 1-3.242-1.653z" fill="#edba89"/><path d="M140.783 350.129a21.332 21.332 0 0 1-2.134-.944c-10.355-4.831-14.651-11.113-16.381-14.864a3.712 3.712 0 0 1-.313-.493c-1.239-2.276-3.167-.836-3.167-.836l-.005-.005c-9.671 7.418-20.233 11.753-29.015 14.277a90.436 90.436 0 0 1-9.654 2.273c-5.885 1.08-9.67 1.222-9.67 1.222a6.166 6.166 0 0 0-5.721 6.148v25.145c0 19.996 16.271 36.267 36.27 36.267h7.533c19.996 0 36.267-16.271 36.267-36.267v-26.148a6.157 6.157 0 0 0-4.01-5.775z" fill="#fbcb99"/><path d="M72.119 382.051v-25.145a6.163 6.163 0 0 1 5.716-6.148s3.788-.142 9.671-1.221a90.637 90.637 0 0 0 9.66-2.273c7.767-2.235 16.934-5.892 25.645-11.848a19.854 19.854 0 0 1-.545-1.097 3.712 3.712 0 0 1-.313-.493c-1.239-2.276-3.167-.836-3.167-.836l-.005-.005c-9.671 7.418-20.233 11.753-29.015 14.277a90.436 90.436 0 0 1-9.654 2.273c-5.885 1.08-9.67 1.221-9.67 1.221a6.166 6.166 0 0 0-5.721 6.148v25.145c0 19.996 16.271 36.267 36.27 36.267h7.39c-19.993.002-36.262-16.269-36.262-36.265z" fill="#edba89"/><path d="M360.241 469.172c0-.821-.023-1.622-.051-2.425-.006-.113-.005-.228-.013-.34-.014-.406-.048-.801-.074-1.202-.03-.509-.054-1.025-.097-1.527-.018-.208-.049-.412-.068-.621a58.021 58.021 0 0 0-.224-2.034c-.005-.056-.016-.113-.024-.169-1.829-13.681-8.057-23.672-15.059-30.479-.032-.035-.066-.064-.098-.097a52.981 52.981 0 0 0-1.104-1.04c-.183-.172-.367-.328-.551-.49a37.46 37.46 0 0 0-1.834-1.556c-4.489-3.631-8.985-5.995-12.511-7.215-.013-.003-.028-.013-.045-.016l-.091-.033c-.012-.002-.022-.007-.036-.012l-46.26-18.547-11.555 11.993-11.818 11.512-11.82-11.512-11.554-11.993-46.261 18.547c-.009.005-.023.009-.032.012l-.093.033c-.014.003-.031.013-.045.016-3.525 1.22-8.021 3.583-12.513 7.215-.037.031-.079.063-.113.096a39.51 39.51 0 0 0-1.071.892c-.218.183-.434.374-.646.568-.187.162-.37.319-.551.49a48.43 48.43 0 0 0-1.105 1.04c-.035.032-.063.062-.099.097-6.999 6.806-13.228 16.798-15.059 30.479a9.86 9.86 0 0 1-.026.169 66.29 66.29 0 0 0-.221 2.034c-.017.208-.048.412-.064.621-.045.503-.069 1.018-.1 1.527-.025.401-.06.796-.076 1.202-.005.112-.003.227-.008.34a66.706 66.706 0 0 0-.052 2.425v7.353h.002v22.467c.299 3.508 2.115 9.673 11.185 9.673H349.058c9.066 0 10.879-6.165 11.185-9.673v-29.82h-.002z" fill="#6598cb"/><path d="M360.241 469.172c0-.821-.023-1.622-.051-2.425-.006-.113-.005-.228-.013-.34-.014-.406-.048-.801-.074-1.202-.03-.509-.054-1.025-.097-1.527-.018-.208-.049-.412-.068-.621a58.021 58.021 0 0 0-.224-2.034c-.005-.056-.016-.113-.024-.169-1.829-13.681-8.057-23.672-15.059-30.479-.032-.035-.066-.064-.098-.097a52.981 52.981 0 0 0-1.104-1.04c-.183-.172-.367-.328-.551-.49a37.46 37.46 0 0 0-1.834-1.556c-4.489-3.631-8.985-5.995-12.511-7.215-.013-.003-.028-.013-.045-.016l-.091-.033c-.012-.002-.022-.007-.036-.012l-46.26-18.547-11.555 11.993-11.818 11.512-11.82-11.512-11.554-11.993-46.261 18.547c-.009.005-.023.009-.032.012l-.093.033c-.014.003-.031.013-.045.016-3.525 1.22-8.021 3.583-12.513 7.215-.037.031-.079.063-.113.096a39.51 39.51 0 0 0-1.071.892c-.218.183-.434.374-.646.568-.187.162-.37.319-.551.49a48.43 48.43 0 0 0-1.105 1.04c-.035.032-.063.062-.099.097-6.999 6.806-13.228 16.798-15.059 30.479a9.86 9.86 0 0 1-.026.169 66.29 66.29 0 0 0-.221 2.034c-.017.208-.048.412-.064.621-.045.503-.069 1.018-.1 1.527-.025.401-.06.796-.076 1.202-.005.112-.003.227-.008.34a66.706 66.706 0 0 0-.052 2.425v7.353h.002v22.467c.299 3.508 2.115 9.673 11.185 9.673H349.058c9.066 0 10.879-6.165 11.185-9.673v-29.82h-.002z" fill="#6598cb"/><path d="M235.133 401.89l-46.022 18.022-.143.05c-11.789 4.206-31.748 19.306-31.748 49.208v29.819c.299 3.508 2.115 9.673 11.185 9.673h2.327v-39.491c0-29.904 19.961-45.003 31.751-49.208l.143-.05 36.376-14.244-3.869-3.779z" fill="#4982aa"/><path d="M261.112 233.111h-4.989c-34.062 0-61.772 27.713-61.772 61.775v28.98s14.064-1.397 15.792-8.217l-.009-.006a7.845 7.845 0 0 0 1.445-2.204c7.977-.243 45.242-.532 66.525-26.234 2.539 7.429 11.131 21.498 27.663 25.927a7.791 7.791 0 0 0 1.462 2.406l-.136.112c1.729 6.82 15.796 8.217 15.796 8.217v-28.979c-.002-34.065-27.716-61.777-61.777-61.777zm46.573 78.103l.596-.432h.082l-.967.717.289-.285zm-.302.184l.067-.207.211-.408h.082l-.246.511-.114.104zm-1.637 1.269l-.024-.033 1.522-1.102-.359.349-1.113.823-.026-.037zm1.255-.358l-.477.987-.008-.002-.067-.03c-.012-.006-.023-.015-.033-.021l.781-1.544.02-.02-.216.63z" fill="#694b4b"/><path d="M205.24 310.836v-15.951c0-33.074 26.127-60.154 58.825-61.7a61.606 61.606 0 0 0-2.952-.075h-4.989c-34.062 0-61.772 27.713-61.772 61.775v28.98s6.215-.619 10.889-3.037v-9.992h-.001z" fill="#563b3b"/><path d="M315.467 314.91a7.779 7.779 0 0 0-6.926 1.155 7.796 7.796 0 0 0-3.168 6.269V344.5a7.772 7.772 0 0 0 7.778 7.774c.776 0 1.558-.115 2.312-.353a19.134 19.134 0 0 0 4.355-1.991 7.788 7.788 0 0 0 2.126-1.927 7.804 7.804 0 0 0 2.267-1.763 19.358 19.358 0 0 0 4.876-12.829c0-8.527-5.473-15.963-13.62-18.501z" fill="#fbcb99"/><path d="M208.919 316.064a7.788 7.788 0 0 0-6.924-1.156c-8.143 2.54-13.62 9.976-13.62 18.503 0 8.533 5.477 15.97 13.62 18.508a7.767 7.767 0 0 0 6.923-1.159 7.775 7.775 0 0 0 3.171-6.262v-22.167a7.782 7.782 0 0 0-3.17-6.267z" fill="#edba89"/><path d="M279.966 383.133a7.816 7.816 0 0 0-5.712-2.151l-.267.014a7.673 7.673 0 0 0-1.407.178 42.004 42.004 0 0 1-9.093 1.006h-9.508a42.1 42.1 0 0 1-9.366-1.064 7.746 7.746 0 0 0-6.582 1.491 7.78 7.78 0 0 0-2.935 6.085v22.625l-.003.076a7.79 7.79 0 0 0 2.337 6.003l15.629 15.223a7.771 7.771 0 0 0 5.427 2.202h.123a7.79 7.79 0 0 0 5.477-2.38l16.098-16.714a7.754 7.754 0 0 0 2.177-5.391v-21.582a7.77 7.77 0 0 0-2.395-5.621z" fill="#fbcb99"/><path d="M260.061 430.283l-15.628-15.222a7.772 7.772 0 0 1-2.339-6.003l.009-.076v-22.624a7.76 7.76 0 0 1 2.111-5.315 7.785 7.785 0 0 0-6.181 1.565 7.779 7.779 0 0 0-2.935 6.085v22.625l-.003.076a7.79 7.79 0 0 0 2.337 6.003l15.629 15.223a7.771 7.771 0 0 0 5.427 2.202h.123a7.79 7.79 0 0 0 5.477-2.38l.067-.073a7.766 7.766 0 0 1-4.094-2.086z" fill="#edba89"/><path d="M304.202 308.56a26.362 26.362 0 0 1-2.695-1.193c-13.071-6.098-18.493-14.027-20.677-18.763a4.893 4.893 0 0 1-.394-.622c-1.565-2.871-3.998-1.053-3.998-1.053l-.007-.007c-12.208 9.363-25.538 14.838-36.624 18.021a113.666 113.666 0 0 1-12.183 2.867c-7.429 1.364-12.206 1.542-12.206 1.542a7.784 7.784 0 0 0-7.22 7.762v31.736c0 25.241 20.536 45.776 45.78 45.776h9.508c25.238 0 45.776-20.535 45.776-45.776v-33.004a7.774 7.774 0 0 0-5.06-7.286z" fill="#fbcb99"/><path d="M217.533 348.852v-31.736a7.781 7.781 0 0 1 7.216-7.762s4.779-.176 12.207-1.542a113.853 113.853 0 0 0 12.192-2.867c9.804-2.82 21.375-7.436 32.37-14.954a26.058 26.058 0 0 1-.688-1.385 4.893 4.893 0 0 1-.394-.622c-1.565-2.871-3.998-1.053-3.998-1.053l-.007-.007c-12.208 9.363-25.538 14.838-36.624 18.021a113.666 113.666 0 0 1-12.183 2.867c-7.429 1.364-12.206 1.542-12.206 1.542a7.784 7.784 0 0 0-7.22 7.762v31.736c0 25.241 20.536 45.776 45.78 45.776h9.328c-25.237 0-45.773-20.535-45.773-45.776z" fill="#edba89"/></svg>