<svg xmlns="http://www.w3.org/2000/svg" width="473.031" height="473.031" viewBox="0 0 473.031 473.031"><path d="M190.444 230.819c2.599 0 4.919-1.056 6.534-2.971 1.814-2.151 2.499-5.17 1.928-8.5l-5.7-33.24c-.327-1.91.794-5.362 2.182-6.715l24.147-23.538c3.038-2.961 4.151-6.596 3.054-9.973-1.097-3.376-4.134-5.663-8.333-6.273l-33.37-4.85c-1.919-.279-4.855-2.412-5.713-4.15l-14.924-30.236c-1.877-3.805-4.991-5.987-8.542-5.987s-6.665 2.183-8.542 5.987l-14.924 30.237c-.857 1.737-3.793 3.87-5.711 4.149l-33.372 4.85c-4.199.61-7.236 2.897-8.333 6.274-1.097 3.376.017 7.011 3.055 9.973l24.147 23.537c1.388 1.353 2.51 4.804 2.182 6.714l-5.701 33.24c-.571 3.331.113 6.35 1.927 8.501 2.702 3.206 7.408 3.898 11.893 1.54l29.849-15.693c.627-.329 1.884-.682 3.53-.682s2.903.353 3.53.682l29.847 15.693c1.806.95 3.609 1.431 5.36 1.431zm-38.736-29.806c-3.351 0-6.587.731-9.114 2.061l-25.41 13.359 4.854-28.297c.992-5.786-1.43-13.239-5.633-17.337l-20.556-20.036 28.409-4.129c5.81-.845 12.149-5.452 14.746-10.715l12.705-25.74 12.705 25.74c2.597 5.264 8.937 9.87 14.747 10.715l28.408 4.129-20.556 20.037c-4.203 4.097-6.625 11.549-5.633 17.335l4.853 28.298-25.409-13.359c-2.529-1.329-5.766-2.061-9.116-2.061zm204.483 29.806c2.6 0 4.919-1.056 6.534-2.971 1.814-2.151 2.499-5.171 1.927-8.501l-5.702-33.24c-.327-1.91.795-5.361 2.183-6.714l24.147-23.538c3.038-2.961 4.151-6.596 3.055-9.973-1.098-3.376-4.135-5.663-8.333-6.273l-33.369-4.85c-1.919-.279-4.855-2.412-5.713-4.15l-14.924-30.236c-1.878-3.805-4.991-5.987-8.542-5.987s-6.664 2.183-8.542 5.987l-14.924 30.235c-.857 1.738-3.794 3.872-5.712 4.151l-33.372 4.85c-4.199.61-7.236 2.897-8.333 6.274-1.097 3.376.018 7.011 3.055 9.973l24.147 23.537c1.388 1.353 2.51 4.804 2.182 6.714l-5.7 33.24c-.571 3.331.112 6.35 1.927 8.501 2.703 3.206 7.406 3.898 11.894 1.54l29.848-15.693c.627-.329 1.884-.682 3.53-.682s2.902.353 3.529.682l29.85 15.693c1.806.95 3.608 1.431 5.358 1.431zm-38.737-29.806c-3.352 0-6.588.731-9.115 2.061l-25.408 13.359 4.853-28.297c.992-5.786-1.43-13.239-5.633-17.337l-20.556-20.036 28.409-4.129c5.809-.845 12.147-5.451 14.746-10.715l12.705-25.74 12.704 25.74c2.598 5.264 8.938 9.87 14.748 10.715l28.407 4.129-20.555 20.037c-4.204 4.097-6.625 11.55-5.633 17.336l4.854 28.297-25.41-13.359c-2.529-1.329-5.765-2.061-9.116-2.061zM133.843 287.44l-33.372-4.853c-1.917-.278-4.853-2.412-5.711-4.149L79.836 248.2c-1.878-3.803-4.991-5.984-8.542-5.984s-6.664 2.182-8.542 5.986l-14.923 30.234c-.858 1.739-3.794 3.873-5.712 4.151L8.746 287.44c-4.198.608-7.236 2.896-8.333 6.271-1.098 3.378.016 7.014 3.054 9.977l24.147 23.535c1.388 1.354 2.51 4.807 2.182 6.717l-5.7 33.232c-.571 3.331.113 6.352 1.928 8.502 2.703 3.205 7.409 3.898 11.893 1.54l29.847-15.69c.627-.33 1.884-.683 3.53-.683s2.903.353 3.53.683l29.847 15.69c1.805.949 3.608 1.431 5.358 1.431 2.599 0 4.92-1.056 6.535-2.972 1.814-2.151 2.499-5.171 1.927-8.5l-5.699-33.233c-.328-1.91.794-5.363 2.182-6.715l24.148-23.539c3.038-2.963 4.151-6.599 3.053-9.976-1.098-3.374-4.135-5.661-8.332-6.27zm-27.246 31.193c-4.203 4.099-6.624 11.552-5.632 17.336l4.852 28.292-25.409-13.357c-2.527-1.328-5.764-2.061-9.114-2.061-3.35 0-6.587.73-9.114 2.061L36.771 364.26l4.853-28.291c.992-5.786-1.429-13.239-5.633-17.338l-20.558-20.037 28.409-4.131c5.809-.843 12.149-5.449 14.748-10.716l12.704-25.738 12.705 25.74c2.599 5.265 8.939 9.871 14.747 10.714l28.41 4.131-20.559 20.039zm192.467-31.193l-33.372-4.853c-1.917-.278-4.853-2.412-5.711-4.149L245.058 248.2c-1.878-3.803-4.991-5.984-8.542-5.984s-6.664 2.182-8.542 5.986l-14.923 30.234c-.858 1.739-3.794 3.873-5.712 4.151l-33.371 4.853c-4.198.608-7.236 2.896-8.333 6.271-1.098 3.378.016 7.014 3.054 9.977l24.147 23.535c1.388 1.354 2.51 4.807 2.182 6.717l-5.7 33.232c-.571 3.331.113 6.35 1.927 8.502 2.703 3.205 7.405 3.898 11.893 1.54l29.847-15.69c.627-.33 1.885-.683 3.532-.683 1.646 0 2.902.353 3.529.683l29.848 15.69c1.805.949 3.607 1.431 5.357 1.431 2.6 0 4.921-1.056 6.535-2.972 1.814-2.151 2.499-5.171 1.928-8.501l-5.7-33.232c-.328-1.91.794-5.363 2.182-6.715l24.147-23.537c3.039-2.963 4.151-6.599 3.054-9.977-1.097-3.375-4.135-5.662-8.333-6.271zm-27.246 31.193c-4.203 4.099-6.625 11.551-5.632 17.337l4.852 28.291-25.408-13.357c-2.526-1.328-5.764-2.061-9.114-2.061s-6.587.73-9.115 2.061l-25.409 13.357 4.853-28.291c.992-5.786-1.429-13.238-5.633-17.338l-20.558-20.037 28.409-4.131c5.809-.844 12.149-5.449 14.748-10.715l12.704-25.74 12.706 25.741c2.599 5.265 8.938 9.87 14.747 10.714l28.41 4.131-20.56 20.038zm197.746-14.946c3.038-2.961 4.151-6.597 3.054-9.975-1.098-3.377-4.135-5.663-8.333-6.271l-33.372-4.853c-1.918-.278-4.854-2.412-5.712-4.149L410.278 248.2c-1.878-3.803-4.992-5.985-8.542-5.985-3.551 0-6.664 2.183-8.542 5.987l-14.924 30.236c-.857 1.737-3.794 3.871-5.713 4.149l-33.369 4.853c-4.198.608-7.234 2.896-8.333 6.271-1.098 3.377.015 7.013 3.054 9.978l24.146 23.535c1.388 1.354 2.51 4.807 2.183 6.717l-5.7 33.232c-.57 3.331.113 6.35 1.929 8.502 1.615 1.915 3.936 2.971 6.535 2.971 1.75 0 3.553-.48 5.357-1.431l29.848-15.69c.627-.33 1.883-.683 3.528-.683 1.647 0 2.905.353 3.531.683l29.849 15.691c4.486 2.355 9.19 1.665 11.893-1.542 1.813-2.151 2.499-5.17 1.927-8.501l-5.7-33.232c-.328-1.91.794-5.363 2.183-6.716l24.146-23.538zm-32.523 14.946c-4.204 4.099-6.625 11.551-5.634 17.337l4.854 28.291-25.41-13.357c-2.527-1.328-5.764-2.061-9.114-2.061-3.35 0-6.587.732-9.112 2.061l-25.409 13.357 4.852-28.291c.992-5.785-1.429-13.238-5.633-17.338l-20.557-20.038 28.407-4.13c5.811-.844 12.15-5.45 14.748-10.715l12.705-25.74 12.705 25.741c2.6 5.265 8.939 9.87 14.747 10.714l28.411 4.131-20.56 20.038z"/></svg>